HIERARCHY
ROOT pelvis
{
  OFFSET 0 100 0
  CHANNELS 6 Xposition Yposition Zposition Zrotation Xrotation Yrotation
  JOINT pelvis_right_femur
  {
    OFFSET -10.78128 -3.44521 -0.5502486
    CHANNELS 3 Zrotation Xrotation Yrotation
    JOINT right_femur_tibia
    {
      OFFSET -0.8047443 -44.0398 -0.1307829
      CHANNELS 3 Zrotation Xrotation Yrotation
      JOINT right_tibia_foot
      {
        OFFSET 3.006224 -47.83518 -5
        CHANNELS 3 Zrotation Xrotation Yrotation
        End Site
        {
          OFFSET 0 -5 15
        }
      }
    }
  }
  JOINT pelvis_left_femur
  {
    OFFSET 10.78128 -3.44521 -0.5502486
    CHANNELS 3 Zrotation Xrotation Yrotation
    JOINT left_femur_tibia
    {
      OFFSET 0.8047443 -44.0398 -0.1307829
      CHANNELS 3 Zrotation Xrotation Yrotation
      JOINT left_tibia_foot
      {
        OFFSET -4.370144 -48.10324 -4.275266
        CHANNELS 3 Zrotation Xrotation Yrotation
        End Site
        {
          OFFSET 0 -5 15
        }
      }
    }
  }
  JOINT pelvis_spine1
  {
    OFFSET 0 6.468898 -3.129235
    CHANNELS 3 Zrotation Xrotation Yrotation
    JOINT spine1
    {
      OFFSET 0 23.15396 4.99043
      CHANNELS 3 Zrotation Xrotation Yrotation
      JOINT spine2
      {
        OFFSET 0 20.79997 -5.064912
        CHANNELS 3 Zrotation Xrotation Yrotation
        JOINT neck
        {
          OFFSET 0 14.38658 9.616178
          CHANNELS 3 Zrotation Xrotation Yrotation
          End Site
          {
            OFFSET 0 20 0
          }
        }
      }
      JOINT right_manubrium
      {
        OFFSET -5.722621 16.35077 3.967754
        CHANNELS 3 Zrotation Xrotation Yrotation
        JOINT right_clavicle
        {
          OFFSET -13.16364 1.694482 -4.693211
          CHANNELS 3 Zrotation Xrotation Yrotation
          JOINT right_humerus
          {
            OFFSET -28.5034 -0.3100689 -2.792744
            CHANNELS 3 Zrotation Xrotation Yrotation
            JOINT right_radius
            {
              OFFSET -25.15693 0.02248979 -1.271978
              CHANNELS 3 Zrotation Xrotation Yrotation
              End Site
              {
                OFFSET -15 0 0
              }
            }
          }
        }
      }
      JOINT left_manubrium
      {
        OFFSET 5.722621 16.35077 3.967754
        CHANNELS 3 Zrotation Xrotation Yrotation
        JOINT left_clavicle
        {
          OFFSET 13.16364 1.694482 -4.693211
          CHANNELS 3 Zrotation Xrotation Yrotation
          JOINT left_humerus
          {
            OFFSET 29.39168 -1.063119 -2.237045
            CHANNELS 3 Zrotation Xrotation Yrotation
            JOINT left_radius
            {
              OFFSET 24.59957 -0.9528479 0.9047498
              CHANNELS 3 Zrotation Xrotation Yrotation
              End Site
              {
                OFFSET 15 -0 -0
              }
            }
          }
        }
      }
    }
  }
}
MOTION
Frames: 23
Frame Time: 0.0416666666667
0 103.5113 0 2.60055 0.2656984 0.2528927 3.147086 -16.48394 9.498208 -0 38.099 -0 -3.7123 -18.87725 -1.770961 -9.476652 9.854182 -23.78867 -0 4.19199 -0 22.48987 -8.379689 30.74023 -2.291806 -2.025774 4.834264 2.846843 10.34605 -7.514325 1.601317 21.21423 6.502665 2.891151 -25.48729 9.700064 5.210663 -18.88038 11.25598 87.70824 36.99666 -19.9384 -0 0 13.12047 -6.904741 8.676246 3.69841 5.894553 -20.93707 -2.25623 -91.222 21.6245 19.794 0 0 -18.47907 13.56731 13.31799 -1.335172
0.3943119 103.5484 1.631045 2.066698 1.010482 0.5321099 4.331486 -18.44704 10.62513 -0 39.29629 -0 -3.866967 -18.07446 -1.577166 -9.455482 9.298922 -23.61525 -0 5.167232 -0 23.89352 -7.576173 31.31689 -2.478534 -1.970575 4.607983 3.167722 10.25323 -7.733236 1.555208 21.12448 6.610671 2.754858 -25.86332 9.915113 5.070873 -18.94543 11.30486 87.95503 37.56557 -20.16615 -0 0 12.68663 -6.362508 8.534226 3.72619 5.798202 -20.92945 -2.392607 -90.25442 21.37846 18.75979 0 0 -20.47175 14.22291 12.51573 -2.124199
0.7756735 103.2428 3.75798 1.631603 1.190669 0.744408 4.593335 -21.44743 8.056997 -0 31.47932 -0 -4.953615 -13.71347 -1.135084 -8.725798 10.60643 -21.73214 -0 5.881667 -0 19.31094 -12.29432 28.78127 -2.545818 -2.167871 4.776578 3.298596 10.26081 -7.837555 1.620194 21.0749 6.536419 2.609452 -26.09102 10.08053 5.076634 -19.24303 11.28672 88.07154 37.57911 -20.42363 -0 0 13.11655 -5.452472 8.364902 3.157781 5.757859 -20.97774 -2.330864 -90.86298 21.92335 19.49407 0 0 -20.60585 14.1331 12.96225 -1.735335
1.131902 102.81 6.032507 1.206253 1.534093 0.9103137 5.001103 -23.29484 7.885884 -0 28.81229 -0 -5.295263 -12.3779 -1.451609 -8.249686 11.18116 -21.21492 -0 5.916136 -0 16.49304 -14.90491 27.86511 -2.576833 -2.245606 4.835808 3.359172 10.25905 -7.884202 1.646066 21.05456 6.508945 2.547127 -26.18595 10.15207 5.076932 -19.35795 11.28092 88.12233 37.59248 -20.53373 -0 0 13.27202 -5.074353 8.292599 2.93379 5.740535 -20.99445 -2.309466 -91.08449 22.14244 19.7591 0 0 -20.71375 14.10411 13.12571 -1.58905
1.493748 102.2327 8.705716 0.7483001 1.930642 1.09589 5.474958 -26.11215 6.657333 -0 24.8922 -0 -5.915247 -9.358366 -1.022029 -7.815023 11.71303 -19.81766 -0 6.885149 -0 14.5107 -16.80806 26.05637 -2.584247 -2.260354 4.777758 3.42383 10.2019 -7.901124 1.655588 21.0644 6.504774 2.497262 -26.25607 10.20349 5.124237 -19.30229 11.30205 88.05692 37.5718 -20.54913 -0 0 13.2135 -4.955132 8.306625 2.992863 5.675013 -20.89289 -2.284234 -91.10988 22.36996 19.7633 0 0 -20.75834 13.91497 13.17372 -1.366472
1.858648 101.5592 11.79755 0.2775752 2.435957 1.334721 6.009539 -28.90574 5.773205 -0 21.51808 -0 -6.407295 -6.65363 -0.6481437 -7.425911 12.1938 -18.51861 -0 8.092503 -0 12.92638 -18.19321 24.38898 -2.577522 -2.233598 4.672832 3.4718 10.13482 -7.899151 1.650329 21.08527 6.51635 2.47147 -26.29134 10.22413 5.177908 -19.17387 11.33219 87.95409 37.5417 -20.51056 -0 0 13.0523 -5.022476 8.361018 3.192163 5.603384 -20.76378 -2.27004 -91.00273 22.51499 19.60858 0 0 -20.7748 13.70637 13.12405 -1.184843
2.228941 100.8261 15.41977 -0.1750651 2.889058 1.662418 6.461655 -31.49638 4.670315 -0 18.1107 -0 -6.95043 -3.74824 -0.1139218 -7.046567 12.72734 -17.01537 -0 10.02289 -0 11.53934 -18.96334 22.41498 -2.55972 -2.183773 4.533907 3.51523 10.05707 -7.887733 1.636479 21.11335 6.534988 2.456196 -26.30811 10.22553 5.242564 -18.99219 11.37113 87.82069 37.48833 -20.44569 -0 0 12.82292 -5.198767 8.441369 3.486158 5.520214 -20.60789 -2.26058 -90.82586 22.64005 19.36702 0 0 -20.76016 13.44476 13.02423 -0.9805685
2.603955 100.1182 19.65804 -0.670775 3.222639 2.097565 6.906621 -33.4874 3.578672 -0 15.23946 -0 -7.558584 -0.9529326 0.4396315 -6.586885 13.28815 -15.45821 -0 12.95564 -0 9.934091 -19.05195 20.11324 -2.531924 -2.123045 4.389104 3.545924 9.983641 -7.869527 1.617814 21.14348 6.553759 2.452976 -26.3008 10.20484 5.309656 -18.78991 11.41209 87.67992 37.40767 -20.3722 -0 0 12.57383 -5.446732 8.531755 3.816282 5.439511 -20.45325 -2.256018 -90.63014 22.73843 19.10231 0 0 -20.69685 13.15565 12.90705 -0.761825
2.981194 99.55477 24.57897 -1.247454 3.294318 2.618878 7.395492 -34.38846 2.522758 -0 13.3241 -0 -8.320645 1.547628 0.9507035 -5.956161 13.76313 -13.84479 -0 17.33748 -0 7.829657 -18.20208 17.36662 -2.492185 -2.060165 4.256065 3.556192 9.921932 -7.842701 1.598897 21.17576 6.565135 2.461845 -26.26266 10.15946 5.380452 -18.58144 11.45082 87.53631 37.28614 -20.29582 -0 0 12.34044 -5.745647 8.626785 4.148728 5.367318 -20.30977 -2.251756 -90.46774 22.82721 18.87238 0 0 -20.53695 12.82966 12.8143 -0.5043168
3.353412 99.29322 30.1726 -1.937411 3.034594 3.138896 8.063697 -33.74154 1.728956 -0 12.80344 -0 -9.270097 3.30716 1.255102 -5.088304 13.85878 -12.24346 -0 23.50747 -0 5.176013 -16.16405 14.33339 -2.435722 -1.997821 4.152743 3.529031 9.882061 -7.799487 1.582923 21.21276 6.562472 2.489004 -26.17532 10.07936 5.455772 -18.37551 11.48189 87.38977 37.11 -20.20876 -0 0 12.15484 -6.107692 8.727086 4.462916 5.313119 -20.18872 -2.243541 -90.38055 22.90379 18.72292 0 0 -20.21223 12.46266 12.78097 -0.1970582
3.706075 99.48853 36.29998 -2.677295 2.445647 3.487924 8.93353 -31.25225 1.395891 -0 13.64548 -0 -10.35831 3.777874 1.147771 -4.041189 13.0818 -10.71556 -0 31.56341 -0 2.372859 -12.89971 11.50118 -2.355364 -1.934688 4.096521 3.441903 9.874349 -7.727973 1.571296 21.25896 6.540118 2.543698 -26.01221 9.949103 5.537113 -18.17546 11.50013 87.23323 36.86335 -20.09216 -0 0 12.04603 -6.570141 8.838014 4.754556 5.286054 -20.09924 -2.226764 -90.40238 22.96023 18.69188 0 0 -19.64493 12.04192 12.83438 0.176138
4.022957 100.2291 42.67446 -3.242723 1.622701 3.469443 9.713079 -26.99575 1.529831 -0 15.0564 -0 -11.39038 2.557753 0.5099116 -3.072409 10.82856 -9.366745 -0 41.1039 -0 0.1178373 -8.950155 9.533289 -2.242586 -1.866563 4.109272 3.265589 9.910987 -7.612269 1.561569 21.31879 6.495845 2.638909 -25.73781 9.74777 5.621289 -17.98774 11.50037 87.0555 36.53439 -19.9143 -0 0 12.04571 -7.196881 8.966403 5.035472 5.296918 -20.05416 -2.198029 -90.55369 22.97461 18.81083 0 0 -18.76857 11.55643 12.98195 0.6280784
4.30147 101.4622 48.94556 -3.267438 0.6469157 3.000266 9.790646 -21.4387 1.785633 -0 15.63754 -0 -12.05031 -0.1198464 -0.4398124 -2.544483 6.70167 -8.342399 -0 51.01593 -0 -1.132653 -5.447899 8.770712 -2.091138 -1.790126 4.219573 2.969995 10.00234 -7.434234 1.544982 21.39447 6.435069 2.787406 -25.31582 9.45534 5.694967 -17.83263 11.47915 86.83879 36.12544 -19.6265 -0 0 12.19379 -8.067308 9.115761 5.338144 5.354681 -20.06884 -2.156041 -90.83636 22.91734 19.10889 0 0 -17.56617 11.00102 13.19576 1.169004
4.553994 102.9714 54.86253 -2.516878 -0.4918316 2.227721 8.776521 -15.23368 1.747521 -0 14.41341 -0 -12.0502 -3.218833 -1.156219 -2.564726 0.9125342 -7.709257 -0 59.37184 -0 -1.572554 -3.435799 8.980322 -1.903574 -1.709256 4.461217 2.536558 10.14779 -7.176497 1.504686 21.4836 6.376412 2.994155 -24.7263 9.066136 5.728786 -17.75676 11.43736 86.55272 35.66734 -19.15764 -0 0 12.54277 -9.250989 9.279473 5.719138 5.460612 -20.15409 -2.101766 -91.22995 22.76439 19.61756 0 0 -16.11822 10.38524 13.39919 1.802199
4.782702 104.4396 60.37048 -1.22614 -1.782647 1.445408 7.084896 -8.987996 1.432867 -0 11.79988 -0 -11.38007 -5.597401 -1.296067 -2.713622 -5.676283 -7.222147 -0 63.8487 -0 -1.682696 -3.0512 9.761039 -1.69726 -1.642051 4.861686 1.976249 10.32096 -6.828096 1.417658 21.57728 6.353833 3.24656 -23.9888 8.605312 5.67877 -17.83388 11.38228 86.1483 35.22567 -18.41931 -0 0 13.15176 -10.76828 9.43573 6.254516 5.602543 -20.30069 -2.03612 -91.69612 22.52038 20.37217 0 0 -14.62765 9.735742 13.47595 2.521876
4.978825 105.55 65.55324 0.004131827 -3.034895 0.848557 5.623268 -3.194278 1.240746 -0 9.09387 -0 -10.36529 -7.030794 -1.072924 -2.316263 -12.07601 -6.409991 -0 62.81316 -0 -1.648745 -3.579765 10.96222 -1.502133 -1.620939 5.423032 1.338316 10.46241 -6.391415 1.26244 21.66046 6.408457 3.51214 -23.1708 8.131865 5.501425 -18.13951 11.32491 85.56555 34.88424 -17.33448 -0 0 14.06349 -12.5626 9.551405 7.016819 5.758675 -20.46861 -1.955514 -92.19154 22.22953 21.39946 0 0 -13.37413 9.089097 13.31577 3.311107
5.159747 106.0621 70.53361 0.6866229 -3.937538 0.4186676 4.951835 1.808154 1.389014 -0 7.160735 -0 -9.339626 -8.239409 -0.8463345 -1.0127 -17.67387 -5.01188 -0 56.21499 -0 -1.411951 -4.207533 12.47768 -1.348177 -1.679199 6.10877 0.6964853 10.49578 -5.886315 1.030208 21.71595 6.569741 3.750025 -22.36453 7.716773 5.177666 -18.70678 11.27268 84.76024 34.70936 -15.88073 -0 0 15.2715 -14.51162 9.597486 8.039221 5.910554 -20.59661 -1.849938 -92.67789 21.9561 22.68727 0 0 -12.60148 8.478898 12.87335 4.139512
5.380675 105.8649 75.43978 0.7051226 -4.261516 0.03216537 5.010736 5.85833 1.742225 -0 6.112582 -0 -8.38098 -9.997382 -0.7100712 1.00441 -22.18537 -3.168731 -0 45.57851 -0 -0.9750345 -4.491876 13.99108 -1.25298 -1.829653 6.848809 0.1212417 10.36466 -5.347443 0.7333412 21.7329 6.83643 3.927827 -21.64741 7.41073 4.728726 -19.49535 11.22522 83.73332 34.7186 -14.11522 -0 0 16.69976 -16.46747 9.565667 9.28948 6.049816 -20.62794 -1.708665 -93.12258 21.74937 24.15546 0 0 -12.40967 7.927138 12.19503 4.962957
5.709384 105.0093 80.41761 0.2399919 -4.012958 -0.4059353 5.387943 8.971714 2.075701 -0 5.856439 -0 -7.394722 -12.46781 -0.5764396 3.143368 -25.40396 -1.298189 -0 33.42192 -0 -0.4435727 -4.352278 15.15931 -1.218433 -2.050924 7.558464 -0.3405393 10.06622 -4.817049 0.4071452 21.71437 7.168823 4.030611 -21.05984 7.225818 4.213593 -20.39568 11.17846 82.54568 34.87123 -12.17035 -0 0 18.2092 -18.28944 9.472726 10.66707 6.170594 -20.53293 -1.531369 -93.49722 21.62606 25.65397 0 0 -12.71609 7.441675 11.39839 5.730753
6.199563 103.7006 85.63903 -0.3832082 -3.428392 -0.9275082 5.595424 11.37282 2.264359 -0 6.467297 -0 -6.32944 -15.11249 -0.3581454 4.673641 -27.20227 0.04551046 -0 22.4843 -0 0.0292774 -3.946115 15.87244 -1.233796 -2.290489 8.160125 -0.6710273 9.662069 -4.338663 0.1028355 21.67736 7.496907 4.060589 -20.61003 7.137295 3.711662 -21.26168 11.13266 81.31732 35.08101 -10.23673 -0 0 19.62596 -19.85741 9.35198 12.02069 6.259797 -20.3202 -1.336259 -93.77859 21.5763 26.99206 0 0 -13.29621 7.018168 10.62503 6.398571
6.873724 102.237 91.28273 -0.8228097 -2.840543 -1.521415 5.246716 13.46926 2.290079 -0 8.185714 -0 -5.323378 -16.9191 -0.03628127 5.026828 -27.68356 0.349266 -0 14.8643 -0 0.2615779 -3.567344 16.29821 -1.280344 -2.482152 8.599502 -0.8765948 9.259555 -3.952127 -0.1269261 21.64476 7.742031 4.03245 -20.28947 7.098313 3.300031 -21.9528 11.09624 80.2068 35.24638 -8.534556 -0 0 20.77923 -21.08064 9.240486 13.18376 6.297315 -20.03453 -1.158108 -93.94873 21.5784 27.98447 0 0 -13.8777 6.644915 9.991875 6.940277
7.711992 100.9214 97.48133 -0.8409533 -2.52737 -2.13941 4.192506 15.64745 2.204001 -0 11.31838 -0 -4.685368 -16.80268 0.3376305 4.054916 -27.17003 -0.6244179 -0 11.34674 -0 0.1072274 -3.519824 16.7345 -1.337503 -2.568796 8.851769 -0.977013 8.970409 -3.687951 -0.2439829 21.63544 7.842821 3.966209 -20.08272 7.059763 3.034576 -22.36851 11.08262 79.36646 35.28566 -7.263414 -0 0 21.53838 -21.90804 9.168893 14.02083 6.264223 -19.73843 -1.035962 -93.99379 21.61177 28.49634 0 0 -14.24379 6.306943 9.561773 7.353984
8.653879 99.99725 104.2603 -0.3877638 -2.63445 -2.683395 2.575858 17.93455 2.1033 -0 16.19583 -0 -4.693532 -14.0589 0.6939884 2.052474 -25.95784 -2.705289 -0 11.36405 -0 -0.4016886 -3.969585 17.38609 -1.389849 -2.518936 8.916587 -0.9925945 8.868553 -3.562532 -0.2341956 21.65852 7.772114 3.879161 -19.96919 6.986878 2.941639 -22.46347 11.10331 78.89263 35.15846 -6.547561 -0 0 21.83609 -22.33222 9.156358 14.46406 6.149962 -19.48499 -0.9985626 -93.903 21.66348 28.46847 0 0 -14.29622 5.986681 9.341974 7.660522
